<svg width="870" height="429" viewBox="0 0 870 429" fill="none" xmlns="http://www.w3.org/2000/svg">
<path d="M442.153 104.413H408.207C404.548 104.413 400.571 107.245 399.378 110.712L292.37 422.335C291.177 425.803 293.197 428.634 296.872 428.634H330.818C334.493 428.634 338.469 425.803 339.647 422.319L446.639 110.728C447.848 107.26 445.811 104.413 442.153 104.413Z" fill="#22c55e"/>
<path d="M358.42 151.817L361.522 142.765C368.791 121.577 356.511 104.413 334.066 104.413H131.153H116.025C112.319 104.413 108.326 107.26 107.117 110.76L52.6033 269.53L0.300381 421.842C-0.892661 425.294 1.60478 428.634 5.37479 428.634H15.2532C17.9415 428.634 20.4231 426.9 21.2661 424.435L70.5944 280.761C65.3927 312.464 59.7298 369.618 79.3911 400.447C83.8769 407.493 94.0894 428.634 146.011 428.634H248.867C256.868 428.634 265.458 422.51 268.051 414.954L286.996 359.772C289.589 352.216 285.215 346.092 277.197 346.092H157.305C109.551 346.092 76.6392 317.729 75.2711 275.225C75.2075 273.427 75.1598 271.534 75.128 269.546H193.335C262.197 269.53 336.102 216.829 358.42 151.817Z" fill="#22c55e"/>
<path d="M461.114 49.8831L421.027 89.9693C418.912 92.0849 415.46 92.0849 413.344 89.9693L401.955 78.5797C399.839 76.4641 399.839 73.0122 401.955 70.8965L422.857 49.9944C424.972 47.8788 424.972 44.4269 422.857 42.3112L401.255 20.6774C399.139 18.5617 399.139 15.1099 401.255 12.9942L412.66 1.58874C414.776 -0.52692 418.212 -0.526923 420.343 1.57283L461.13 42.1681C463.245 44.2996 463.245 47.7515 461.114 49.8831Z" fill="#B84C41"/>
<path d="M561.031 104.413H492.026C476.484 104.413 462.677 114.339 457.714 129.069L359.869 419.901C358.357 424.371 361.682 429 366.406 429H380.007C382.966 429 385.606 427.107 386.545 424.291L413.126 345.121H506.835L481.829 419.901C480.334 424.371 483.659 428.984 488.367 428.984H503.765C506.74 428.984 509.365 427.091 510.303 424.26L599.177 157.336C607.878 131.296 588.487 104.413 561.031 104.413ZM421.589 320.02L482.116 142.129C484.677 134.621 491.708 129.562 499.645 129.531L553.396 129.34C566.122 129.292 575.141 141.763 571.101 153.837L515.409 320.02H421.589Z" fill="#22c55e"/>
<path d="M742.355 429H755.797C759.01 429 761.842 426.948 762.875 423.91L856.728 144.006C857.905 140.491 855.296 136.848 851.574 136.848H833.599C831.261 136.848 829.193 138.343 828.445 140.554L735.276 419.169C733.654 424.005 737.249 429 742.355 429ZM840.821 104.922L835.81 119.525C834.824 122.404 836.971 125.411 840.01 125.411H859.75C861.659 125.411 863.361 124.186 863.966 122.388L868.865 107.785C869.836 104.906 867.688 101.916 864.65 101.916H845.004C843.127 101.916 841.441 103.124 840.821 104.922Z" fill="#22c55e"/>
<path d="M633.041 109.71L530.248 415.224C527.974 421.985 533 428.984 540.143 428.984H557.465H684.485C702.364 428.984 718.24 417.547 723.887 400.574L804.298 159.054C813.254 132.171 793.242 104.397 764.896 104.397H640.422C637.081 104.413 634.107 106.544 633.041 109.71ZM678.138 403.676H568.585C566.024 403.676 564.226 401.178 565.037 398.744L653.434 134.875C654.5 131.71 657.474 129.562 660.815 129.562L755.829 129.53C770.431 129.53 780.739 143.847 776.094 157.702L698.403 389.104C695.461 397.822 687.316 403.676 678.138 403.676Z" fill="#22c55e"/>
</svg>
