<svg width="653" height="685" viewBox="0 0 653 685" fill="none" xmlns="http://www.w3.org/2000/svg">
<path d="M520.141 259.59L524.663 245.679C535.227 213.116 517.402 186.726 484.84 186.726H190.339H168.385C162.994 186.726 157.212 191.074 155.473 196.464L76.3479 440.447L0.44043 674.516C-1.29857 679.82 2.30984 684.951 7.78769 684.951H22.1345C26.0472 684.951 29.6557 682.299 30.873 678.473L102.476 457.663C94.9118 506.398 86.695 594.218 115.258 641.606C121.779 652.431 136.604 684.907 211.947 684.907H361.24C372.848 684.907 385.325 675.473 389.107 663.865L416.627 579.045C420.41 567.437 414.019 558.003 402.411 558.003H228.424C159.124 558.003 111.345 514.442 109.389 449.098C109.302 446.316 109.215 443.403 109.172 440.36H280.724C380.499 440.447 487.752 359.496 520.141 259.59Z" fill="#1C3F29"/>
<path d="M621.969 186.726H578.494C571.538 186.726 564.104 192.334 561.844 199.29L408.42 672.386C406.159 679.342 409.985 684.951 416.898 684.951H460.373C467.329 684.951 474.763 679.342 477.024 672.386L630.447 199.29C632.708 192.334 628.882 186.726 621.969 186.726Z" fill="#1C3F29"/>
<path d="M650.614 76.4719L587.923 139.164C584.967 142.12 580.141 142.12 577.185 139.164L558.578 120.556C555.621 117.6 555.621 112.774 558.578 109.818L591.792 76.6025C594.749 73.6462 594.749 68.8206 591.792 65.8643L557.491 31.5629C554.534 28.6066 554.534 23.781 557.491 20.8247L576.098 2.21723C579.054 -0.739076 583.837 -0.739076 586.836 2.21723L650.614 65.6902C653.57 68.69 653.57 73.4721 650.614 76.4719Z" fill="#B84C41"/>
</svg>
